<svg id="ataccama-horizontal-transparent" xmlns="http://www.w3.org/2000/svg" xmlns:xlink="http://www.w3.org/1999/xlink" width="187.276" height="28" viewBox="0 0 187.276 28">
  <defs>
    <linearGradient id="linear-gradient" x1="0.103" y1="0.185" x2="1.158" y2="1.024" gradientUnits="objectBoundingBox">
      <stop offset="0" stop-color="#6451a0"/>
      <stop offset="1" stop-color="#d4006d"/>
    </linearGradient>
    <linearGradient id="linear-gradient-2" x1="0.32" y1="-0.127" x2="0.57" y2="0.745" xlink:href="#linear-gradient"/>
  </defs>
  <path id="Path_7444" data-name="Path 7444" d="M5.467,15.855a4.192,4.192,0,0,0,3.139,1.271,4.244,4.244,0,0,0,3.155-1.271,4.455,4.455,0,0,0,1.252-3.265A4.457,4.457,0,0,0,11.76,9.325,4.246,4.246,0,0,0,8.605,8.054,4.193,4.193,0,0,0,5.467,9.325,4.487,4.487,0,0,0,4.23,12.59a4.486,4.486,0,0,0,1.237,3.265ZM13.013,4.547H17.1V20.632h-4.09v-1.9a6.187,6.187,0,0,1-5.168,2.349,7.137,7.137,0,0,1-5.437-2.461A8.573,8.573,0,0,1,.14,12.59,8.573,8.573,0,0,1,2.407,6.558,7.137,7.137,0,0,1,7.844,4.1a6.188,6.188,0,0,1,5.168,2.349ZM29.091,8.536H25.508v6.691a1.6,1.6,0,0,0,.412,1.222,1.874,1.874,0,0,0,1.2.434,17.4,17.4,0,0,0,1.966-.016v3.764q-4.217.483-5.945-.8t-1.728-4.6V8.536H18.66V4.547h2.758V1.3L25.508.044v4.5h3.583Zm6.1,7.319a4.192,4.192,0,0,0,3.139,1.271,4.244,4.244,0,0,0,3.155-1.271,4.455,4.455,0,0,0,1.252-3.265A4.457,4.457,0,0,0,41.48,9.325a4.246,4.246,0,0,0-3.155-1.271,4.193,4.193,0,0,0-3.139,1.271A4.487,4.487,0,0,0,33.95,12.59a4.486,4.486,0,0,0,1.237,3.265ZM42.732,4.547h4.09V20.632h-4.09v-1.9a6.187,6.187,0,0,1-5.168,2.349,7.137,7.137,0,0,1-5.437-2.461A8.573,8.573,0,0,1,29.86,12.59a8.573,8.573,0,0,1,2.267-6.032A7.137,7.137,0,0,1,37.564,4.1a6.188,6.188,0,0,1,5.168,2.349Zm13.9,16.536a8.021,8.021,0,0,1-5.977-2.445,8.3,8.3,0,0,1-2.394-6.048,8.306,8.306,0,0,1,2.394-6.048A8.023,8.023,0,0,1,56.635,4.1a8.127,8.127,0,0,1,4.217,1.126,7.442,7.442,0,0,1,2.885,3.024l-3.519,2.091a3.622,3.622,0,0,0-1.443-1.576A4.147,4.147,0,0,0,56.6,8.183,4.068,4.068,0,0,0,53.56,9.421a4.354,4.354,0,0,0-1.2,3.169,4.312,4.312,0,0,0,1.2,3.137A4.066,4.066,0,0,0,56.6,16.965a4.3,4.3,0,0,0,2.2-.563,3.523,3.523,0,0,0,1.443-1.56L63.8,16.9a8.12,8.12,0,0,1-7.166,4.182m16.015,0a8.021,8.021,0,0,1-5.977-2.445A8.3,8.3,0,0,1,64.28,12.59a8.306,8.306,0,0,1,2.394-6.048A8.023,8.023,0,0,1,72.651,4.1a8.127,8.127,0,0,1,4.217,1.126,7.442,7.442,0,0,1,2.885,3.024l-3.519,2.091a3.623,3.623,0,0,0-1.443-1.576,4.147,4.147,0,0,0-2.172-.579,4.068,4.068,0,0,0-3.044,1.238,4.354,4.354,0,0,0-1.2,3.169,4.312,4.312,0,0,0,1.2,3.137,4.066,4.066,0,0,0,3.044,1.238,4.3,4.3,0,0,0,2.2-.563,3.523,3.523,0,0,0,1.443-1.56L79.816,16.9a8.12,8.12,0,0,1-7.166,4.182m13.026-5.228a4.192,4.192,0,0,0,3.139,1.271,4.244,4.244,0,0,0,3.155-1.271,4.455,4.455,0,0,0,1.252-3.265A4.457,4.457,0,0,0,91.97,9.325a4.246,4.246,0,0,0-3.155-1.271,4.193,4.193,0,0,0-3.139,1.271A4.487,4.487,0,0,0,84.44,12.59a4.486,4.486,0,0,0,1.237,3.265ZM93.223,4.547h4.09V20.632h-4.09v-1.9a6.187,6.187,0,0,1-5.168,2.349,7.137,7.137,0,0,1-5.437-2.461A8.573,8.573,0,0,1,80.35,12.59a8.573,8.573,0,0,1,2.267-6.032A7.137,7.137,0,0,1,88.055,4.1a6.188,6.188,0,0,1,5.168,2.349Zm23.428-.45a5.6,5.6,0,0,1,4.36,1.8,6.914,6.914,0,0,1,1.633,4.826v9.908h-4.09V11.013a3.331,3.331,0,0,0-.7-2.252,2.464,2.464,0,0,0-1.966-.8,2.67,2.67,0,0,0-2.172.933,4.123,4.123,0,0,0-.777,2.7v9.04h-4.09V11.013a3.33,3.33,0,0,0-.7-2.252,2.464,2.464,0,0,0-1.966-.8,2.729,2.729,0,0,0-2.172.933,4.012,4.012,0,0,0-.808,2.7v9.04h-4.09V4.547h4.09V6.252A4.915,4.915,0,0,1,107.615,4.1a4.682,4.682,0,0,1,4.312,2.316A5.348,5.348,0,0,1,116.651,4.1m12.621,11.758a4.191,4.191,0,0,0,3.139,1.271,4.244,4.244,0,0,0,3.155-1.271,4.455,4.455,0,0,0,1.252-3.265,4.457,4.457,0,0,0-1.252-3.265,4.246,4.246,0,0,0-3.155-1.271,4.193,4.193,0,0,0-3.139,1.271,4.487,4.487,0,0,0-1.237,3.265,4.486,4.486,0,0,0,1.237,3.265Zm7.546-11.308h4.09V20.632h-4.09v-1.9a6.187,6.187,0,0,1-5.168,2.349,7.137,7.137,0,0,1-5.438-2.461,8.573,8.573,0,0,1-2.267-6.032,8.573,8.573,0,0,1,2.267-6.032A7.137,7.137,0,0,1,131.65,4.1a6.188,6.188,0,0,1,5.168,2.349Z" transform="translate(46.367 1.723)" fill="#33012a"/>
  <path id="Path_7445" data-name="Path 7445" d="M4.156,4.319A13.47,13.47,0,0,0,.079,14.281h0a13.469,13.469,0,0,0,4.077,9.961h0a13.57,13.57,0,0,0,9.923,4.039h0A13.572,13.572,0,0,0,24,24.242h0a13.471,13.471,0,0,0,4.077-9.961h0A13.472,13.472,0,0,0,24,4.319h0A13.572,13.572,0,0,0,14.079.281h0A13.57,13.57,0,0,0,4.156,4.319M8.483,20.05a7.77,7.77,0,0,1-2.25-5.769h0a7.772,7.772,0,0,1,2.25-5.769h0a7.633,7.633,0,0,1,5.6-2.231h0a7.633,7.633,0,0,1,5.6,2.231h0a7.772,7.772,0,0,1,2.25,5.769h0a7.77,7.77,0,0,1-2.25,5.769h0a7.63,7.63,0,0,1-5.6,2.231h0a7.63,7.63,0,0,1-5.6-2.231" transform="translate(-0.079 -0.281)" fill="url(#linear-gradient)"/>
  <path id="Path_7446" data-name="Path 7446" d="M58,27.761h6.1V1H58Z" transform="translate(-30.807 -0.662)" fill="url(#linear-gradient-2)"/>
</svg>
