<svg xmlns="http://www.w3.org/2000/svg" width="20" height="20" viewBox="0 0 20 20">
  <g id="instagram" transform="translate(-4.079 -4.079)">
    <path id="Path_7695" data-name="Path 7695" d="M14.079,5.881c2.67,0,2.986.01,4.041.058a5.535,5.535,0,0,1,1.857.344,3.312,3.312,0,0,1,1.9,1.9,5.535,5.535,0,0,1,.344,1.857c.048,1.054.058,1.371.058,4.041s-.01,2.986-.058,4.041a5.535,5.535,0,0,1-.344,1.857,3.312,3.312,0,0,1-1.9,1.9,5.535,5.535,0,0,1-1.857.344c-1.054.048-1.371.058-4.041.058s-2.987-.01-4.041-.058a5.535,5.535,0,0,1-1.857-.344,3.312,3.312,0,0,1-1.9-1.9,5.535,5.535,0,0,1-.344-1.857c-.048-1.054-.058-1.371-.058-4.041s.01-2.986.058-4.041a5.535,5.535,0,0,1,.344-1.857,3.312,3.312,0,0,1,1.9-1.9,5.535,5.535,0,0,1,1.857-.344c1.054-.048,1.371-.058,4.041-.058m0-1.8c-2.716,0-3.056.012-4.123.06A7.34,7.34,0,0,0,7.529,4.6,5.114,5.114,0,0,0,4.6,7.529a7.34,7.34,0,0,0-.465,2.427c-.049,1.067-.06,1.407-.06,4.123s.012,3.056.06,4.123A7.34,7.34,0,0,0,4.6,20.629a5.114,5.114,0,0,0,2.925,2.925,7.34,7.34,0,0,0,2.427.465c1.067.049,1.407.06,4.123.06s3.056-.012,4.123-.06a7.34,7.34,0,0,0,2.427-.465,5.114,5.114,0,0,0,2.925-2.925,7.34,7.34,0,0,0,.465-2.427c.049-1.067.06-1.407.06-4.123s-.012-3.056-.06-4.123a7.34,7.34,0,0,0-.465-2.427A5.114,5.114,0,0,0,20.629,4.6,7.34,7.34,0,0,0,18.2,4.139c-1.067-.049-1.407-.06-4.123-.06Z" fill="#868e96"/>
    <path id="Path_7696" data-name="Path 7696" d="M131.77,126.635a5.135,5.135,0,1,0,5.135,5.135A5.135,5.135,0,0,0,131.77,126.635Zm0,8.468a3.333,3.333,0,1,1,3.333-3.333A3.333,3.333,0,0,1,131.77,135.1Z" transform="translate(-117.691 -117.691)" fill="#868e96"/>
    <circle id="Ellipse_435" data-name="Ellipse 435" cx="1.2" cy="1.2" r="1.2" transform="translate(18.217 7.541)" fill="#868e96"/>
  </g>
</svg>
