<svg id="linkedin" xmlns="http://www.w3.org/2000/svg" width="20" height="20" viewBox="0 0 20 20">
  <g id="post-linkedin" transform="translate(0 0)">
    <path id="Path_7691" data-name="Path 7691" d="M18,0H2A2.006,2.006,0,0,0,0,2V18a2.006,2.006,0,0,0,2,2H18a2.006,2.006,0,0,0,2-2V2A2.006,2.006,0,0,0,18,0ZM6,17H3V8H6ZM4.5,6.3A1.8,1.8,0,1,1,6.3,4.5,1.793,1.793,0,0,1,4.5,6.3ZM17,17H14V11.7a1.5,1.5,0,0,0-3,0V17H8V8h3V9.2a3.23,3.23,0,0,1,2.5-1.4A3.543,3.543,0,0,1,17,11.3Z" fill="#868e96"/>
  </g>
</svg>
